<svg xmlns="http://www.w3.org/2000/svg" viewBox="0 0 337.55 365.44"><defs><style>.cls-1{fill:#fff;}.cls-2{fill:#573d58;}.cls-3{fill:#231300;}</style></defs><title>logo</title><g id="logo"><g id="logogroup1"><path d="M335,322.43c-13-10.94-28.72-15.28-44.6-19C275.75,300,261,297.17,246.27,294a24.83,24.83,0,0,1-5.71-1.74c-1.91-.94-5-2.27-5.08-3.59-.17-2.59,3.05-3,5.15-3.74,3.13-1.11,6.38-1.86,9.54-2.86,3.33-1.05,6.68-2.05,9.89-3.37,2.72-1.13,5.34-2.73,5.49-6.15s-1.88-5.58-4.54-6.92c-4.06-2.05-8.19-4.28-12.55-5.34-15.81-3.86-31.74-7.23-47.61-10.83-6.47-1.47-12.94-3-19.36-4.65-2-.52-5.12-1-4.89-3.35.15-1.58,2.69-3.39,4.55-4.28,7.34-3.5,15.34-4.77,23.29-6.14,2.94-.5,5.93-.78,8.85-1.39.72-.15,1.26-1.19,1.88-1.82-.76-.46-1.55-1.37-2.27-1.31-17.63,1.47-35.34,2.45-52.53,7.08A40.51,40.51,0,0,0,150.11,238c-4.75,2.86-4.82,8.17.06,10.77a82.34,82.34,0,0,0,15.46,6.07c10.75,3.19,21.65,5.85,32.44,8.91,4.11,1.17,8.25,2.51,11.88,6.22a35.9,35.9,0,0,1-5.07,2.76c-4.31,1.49-8.73,2.66-13.06,4.11-5.43,1.81-10.87,3.62-16.19,5.73a18.1,18.1,0,0,0-5.53,3.71c-2.66,2.52-2.7,5.6-.51,8.53a17,17,0,0,0,9.17,6.16c8.54,2.41,17.22,4.32,25.77,6.7s17,4.67,25.22,7.68a38.27,38.27,0,0,1,18.88,14.88c3.35,5,8.36,8.12,13.76,10.39,5,2.12,10.32,3.66,15.49,5.45.77.26,1.56.44,2.68.76C228.8,358.35,158,335.17,129.44,266.69c-27.47-65.77,1.42-141.92,65.78-172.5,67.23-31.93,142.84-5,176.48,55.89C405.78,211.76,385.64,285.15,335,322.43ZM235.41,192.5l1.89-.47c.26.81.59,1.79.9,2.76l2.47.39,1-2.23c6.78,1.42,12.67,5.6,19.85,4.84-.05-5,3.27,0,4.64-1.36-.28-.45-.56-.9-1-1.56,1.56-.21,3.19-1,2.57,1.25l3.44,1.3c.12-.94.24-1.87.38-2.93a18.55,18.55,0,0,1,3.63,1,71.32,71.32,0,0,1,7.63,4.29,6.77,6.77,0,0,1,3.46,5.48c.11,4.63.26,9.27.3,13.91,0,2.32.81,3.19,3.29,3.19,2.68,0,4.1-1.1,3.94-3.17-.21-2.81-.49-5.62-.81-8.42a6.66,6.66,0,0,1,2.76-6.73,16,16,0,0,0,5.73-7.3c1.18-3.11,2-3.49,4.95-1.94,2.11,1.12,3.93,1.15,5.59-.54,3.74-3.81,8.78-3.2,13.39-4.09a1,1,0,0,1,.68.11c2.08,1.63,4.6,2.8,4.56,6.17,0,2.54,1.73,4.13,4.15,5.46.29-1.37.52-2.45.77-3.66a13.65,13.65,0,0,0,1.66-.78c1-.66,3.57.32,4.34,1.28a8.57,8.57,0,0,0,2.94,2,5.28,5.28,0,0,0,2,0c.16-.93.35-2,.65-3.8l9.33,2.1c-.53-2.46.2-2.91,3.86-2.13V190.5c1.59-.51,4.2-.59,4.74-1.69,1-1.94.91-4.61-2.34-5.05.51-2.36,2.88-4.18,1.64-6-2.32-2.22-6,1.49-6.88-3l1.88-.62c-.17-3.59-3.73-3.35-5.65-5-.09-.08-.32,0-.47,0-1.82.38-4-1.39-3.53-3.14.63-2.22-.31-3.17-1.95-4.39-.6-.44-3.41-1.44-1.63-3.09l-4.34-7.17c2.6-2.1,1.39-3.86-.83-5.56a2.88,2.88,0,0,1-1.17-1.76c-.12-2.63-.07-2.6-2.47-4.51a4.34,4.34,0,0,1-1.58-2c-.68-2.53-1.61-4.31-4.81-3.56-.93.22-2.91.58-2.65-1.72l-4-.43a4.92,4.92,0,0,0-2.29-2.71c-1-.42-2.34.13-3.41-.19a41,41,0,0,1-4.81-2.07l.85-2.05-1.57.27c-.53-1.08-.92-2.56-1.32-2.56a28.41,28.41,0,0,0-5.24.69c-.06,0,0,.58-.06.87,0,.09-.27.13-.41.2a20,20,0,0,0-6.31-1.68c-1.24-.11-3.61.34-3.66.75-.39,3.45-2.24,5.19-5.52,5.73-.27,0-.55.63-.7.58-1.56-.51-3.13,1.94-4.95-.6-1.14-1.59-4-2.55-6.17-2.67-2.7-.16-5.48.83-8.35,1.35L270,126c-.24,2.25-1.35,2.64-2.86,2.14-2.72-.92-5,.14-7.2,1.51a20.59,20.59,0,0,0-3.76,2.94,11.25,11.25,0,0,0-2.65,3.66c-.86,2.26-2.74,3.27-4.88,2.31a2.28,2.28,0,0,0-2,.08c-1.48,1.3-2.78,2.8-4.1,4.19l-1.88-1.32c-.45,1.61-3.71,5.29-6,6.13-2.52.9-2.53,2.28-2.32,4.61s2.19,5.12-.73,6.85l1.38,2.89a10.91,10.91,0,0,1-2.38.94c-3.91.61-7.06,5.35-6.05,9.22.63,2.43.2,3.19-2.08,3.37-2.95.23-5.91.39-8.26.54L213,179.81c-.35,1.1-1.26,2.92-.94,3.18,1.78,1.41,1.3,2.89.35,4.67,3.24-.2,5.83-3,9-1.28-.33,1.25-2.25,2.67.09,3.19a11.23,11.23,0,0,0-.35,2.73c0,.28,1.17.76,1.64.62,2-.59,3.89-1.37,6.09-2.18.44,1.89.81,3.54,1.17,5.08l3.42-1.32Z" transform="translate(-80.83 -80.66)"/><path class="cls-1" d="M233.41,194.5,230,195.82c-.36-1.54-.73-3.19-1.17-5.08-2.2.81-4.11,1.59-6.09,2.18-.47.14-1.61-.34-1.64-.62a11.23,11.23,0,0,1,.35-2.73c-2.34-.52-.42-1.94-.09-3.19-3.16-1.69-5.75,1.08-9,1.28.95-1.78,1.43-3.26-.35-4.67-.32-.26.59-2.08.94-3.18l1.21-3.76c2.35-.15,5.31-.31,8.26-.54,2.28-.18,2.71-.94,2.08-3.37-1-3.87,2.14-8.61,6.05-9.22a10.91,10.91,0,0,0,2.38-.94l-1.38-2.89c2.92-1.73.95-4.54.73-6.85s-.2-3.71,2.32-4.61c2.32-.84,5.58-4.52,6-6.13l1.88,1.32c1.32-1.39,2.62-2.89,4.1-4.19a2.28,2.28,0,0,1,2-.08c2.14,1,4-.05,4.88-2.31a11.25,11.25,0,0,1,2.65-3.66,20.59,20.59,0,0,1,3.76-2.94c2.19-1.37,4.48-2.43,7.2-1.51,1.51.5,2.62.11,2.86-2.14l.46,1.76c2.87-.52,5.65-1.51,8.35-1.35,2.16.12,5,1.08,6.17,2.67,1.82,2.54,3.39.09,4.95.6.15.05.43-.54.7-.58,3.28-.54,5.13-2.28,5.52-5.73.05-.41,2.42-.86,3.66-.75a20,20,0,0,1,6.31,1.68c.14-.07.39-.11.41-.2.07-.29,0-.86.06-.87a28.41,28.41,0,0,1,5.24-.69c.4,0,.79,1.48,1.32,2.56l1.57-.27-.85,2.05a41,41,0,0,0,4.81,2.07c1.07.32,2.43-.23,3.41.19a4.92,4.92,0,0,1,2.29,2.71l4,.43c-.26,2.3,1.72,1.94,2.65,1.72,3.2-.75,4.13,1,4.81,3.56a4.34,4.34,0,0,0,1.58,2c2.4,1.91,2.35,1.88,2.47,4.51a2.88,2.88,0,0,0,1.17,1.76c2.22,1.7,3.43,3.46.83,5.56l4.34,7.17c-1.78,1.65,1,2.65,1.63,3.09,1.64,1.22,2.58,2.17,1.95,4.39-.49,1.75,1.71,3.52,3.53,3.14.15,0,.38-.09.47,0,1.92,1.63,5.48,1.39,5.65,5l-1.88.62c.88,4.53,4.56.82,6.88,3,1.24,1.78-1.13,3.6-1.64,6,3.25.44,3.31,3.11,2.34,5.05-.54,1.1-3.15,1.18-4.74,1.69V197c-3.66-.78-4.39-.33-3.86,2.13l-9.33-2.1c-.3,1.79-.49,2.87-.65,3.8a5.28,5.28,0,0,1-2,0,8.57,8.57,0,0,1-2.94-2c-.77-1-3.31-1.94-4.34-1.28a13.65,13.65,0,0,1-1.66.78c-.25,1.21-.48,2.29-.77,3.66-2.42-1.33-4.19-2.92-4.15-5.46,0-3.37-2.48-4.54-4.56-6.17a1,1,0,0,0-.68-.11c-4.61.89-9.65.28-13.39,4.09-1.66,1.69-3.48,1.66-5.59.54-2.93-1.55-3.77-1.17-4.95,1.94a16,16,0,0,1-5.73,7.3,6.66,6.66,0,0,0-2.76,6.73c.32,2.8.6,5.61.81,8.42.16,2.07-1.26,3.16-3.94,3.17-2.48,0-3.27-.87-3.29-3.19,0-4.64-.19-9.28-.3-13.91a6.77,6.77,0,0,0-3.46-5.48,71.32,71.32,0,0,0-7.63-4.29,18.55,18.55,0,0,0-3.63-1c-.14,1.06-.26,2-.38,2.93l-3.44-1.3c.62-2.29-1-1.46-2.57-1.25.4.66.68,1.11,1,1.56-1.37,1.36-4.69-3.64-4.64,1.36-7.18.76-13.07-3.42-19.85-4.84l-1,2.23-2.47-.39c-.31-1-.64-1.95-.9-2.76l-1.89.47.68-1.5a35.07,35.07,0,0,0-4.74-.9c-1.52-.1-2.12.92-1.46,2.27S231.37,195.24,233.41,194.5Zm64.35.13c-1.71.84-3.79.64-4.67,3.12-1.2,3.41-1.51,4.1.24,5.83.41-.51.72-1.23,1.26-1.49C297.77,200.52,299.9,198.56,297.76,194.63Zm-22.53-2.22c2.07,1.29,4.43,2.81,6.84,4.22a1.81,1.81,0,0,0,1.59,0,1.48,1.48,0,0,0,.27-1.39,51.21,51.21,0,0,0-2.47-4.84c-.83-1.4-2-.89-2.55.12C278,192.26,276.72,193,275.23,192.41Zm-24,1.11-7.71-2.09-.32,1c3.72,1,7.43,2.11,11.18,3,.35.09.94-.81,1.27-1.12a11.43,11.43,0,0,0,1.12.37c1.13-2.6-1.7-2.71-2.83-4.88Zm39.88-2.67-3.8-.31a9.22,9.22,0,0,0,.52,2.53,14.94,14.94,0,0,0,1.93,2.32,21.28,21.28,0,0,0,2-3.1C291.91,191.9,291.27,191.17,291.12,190.85ZM266.55,193l-2.92-2.56c-.53,1.12-.93,1.95-1.5,3.14Z" transform="translate(-80.83 -80.66)"/><path d="M233.41,194.5c-2,.74-2.84-.75-3.52-2.13s-.06-2.37,1.46-2.27a35.07,35.07,0,0,1,4.74.9l-.68,1.5Z" transform="translate(-80.83 -80.66)"/><path class="cls-1" d="M397.82,378.33c4.17-9.27,9.09-17.09,17.09-22.55.68-.47,1.8-.29,2.72-.41a6,6,0,0,1,.05,2.34C413.72,366.79,407.12,373.36,397.82,378.33Z" transform="translate(-80.83 -80.66)"/><path class="cls-1" d="M209.64,378.48c3.58-8.47,8-16.23,15.42-21.9a6.12,6.12,0,0,1,1.67-1c.66-.23,1.8-.5,2-.22a3.06,3.06,0,0,1,.35,2.22,8.7,8.7,0,0,1-1.16,2.72C223.32,367.81,216.85,373.52,209.64,378.48Z" transform="translate(-80.83 -80.66)"/><path class="cls-1" d="M328.33,429.61c-.79-2.4-1.58-4.8-2.46-7.49H332c-1.12,2.79-2.06,5.17-3,7.55Z" transform="translate(-80.83 -80.66)"/><path d="M297.76,194.63c2.14,3.93,0,5.89-3.17,7.46-.54.26-.85,1-1.26,1.49-1.75-1.73-1.44-2.42-.24-5.83C294,195.27,296.05,195.47,297.76,194.63Z" transform="translate(-80.83 -80.66)"/><path d="M275.23,192.41c1.49.58,2.72-.15,3.68-1.94.54-1,1.72-1.52,2.55-.12a51.21,51.21,0,0,1,2.47,4.84,1.48,1.48,0,0,1-.27,1.39,1.81,1.81,0,0,1-1.59,0C279.66,195.22,277.3,193.7,275.23,192.41Z" transform="translate(-80.83 -80.66)"/><path d="M251.24,193.52l2.71-3.65c1.13,2.17,4,2.28,2.83,4.88a11.43,11.43,0,0,1-1.12-.37c-.33.31-.92,1.21-1.27,1.12-3.75-.92-7.46-2-11.18-3l.32-1Z" transform="translate(-80.83 -80.66)"/><path d="M291.12,190.85c.15.32.79,1.05.62,1.44a21.28,21.28,0,0,1-2,3.1,14.94,14.94,0,0,1-1.93-2.32,9.22,9.22,0,0,1-.52-2.53Z" transform="translate(-80.83 -80.66)"/><path d="M266.55,193l-4.42.58c.57-1.19,1-2,1.5-3.14Z" transform="translate(-80.83 -80.66)"/></g></g><g id="text"><g id="wines"><path class="cls-2" d="M138.43,414.78c5.31,1,13.75-.87,12.18-8.26-.35-1.74,1.39-1.4,1.74.08a12.75,12.75,0,0,1-.61,7c-1.3,4.09-8,6.79-14.79,5.49-19.75-3.83-29.23-23.32-36.54-32.89a.37.37,0,0,0-.61-.09c-2.61,4.87-4.78,9.48-5.92,12-2,5,.87,4.61,2.87,2.26,1.31-1.57,2.53-3,3.22-3,.44.44-1,2.18-1.13,2.26-1.3,1.92-3.74,6.09-6.09,6.09-.43,0-3.3-.43-3.39-1-.44-3.31,3.48-11.4,7.13-18.62a6,6,0,0,1-1.91-.52c-1.74-1.13-1.13-3.92,1.83-3.92a4.14,4.14,0,0,1,2.09.79c1.82-3.48,3.56-6.53,4.35-8.18,1-2.18.78-3.05.6-3.57.44-2.87,6.7-10.35,11.23-10.35.87,0,4.35.87,4.87,3,.44,1.39-.52.52-1,.52-5,0-11.92,10.18-17.4,19.75a6.8,6.8,0,0,0,3.74.35c11-1.22,23.93-5.4,30.54-12.27,5.14-5.31,3.92-12-4.87-14.62-14.09-3.91-45.07.35-47.42,14.53-.69,4.18,3.92,5.31,5.66,6.35,1,.78.52,1.48-.61,1.22-2.7-.44-8.35-3.83-7.22-9.14a13.66,13.66,0,0,1-.18-1.39c1-5.48,8-10,12.79-12.44,8.79-4.18,24.45-6.09,36.72-2.17,6.79,2.34,10.7,7.3,10.27,12.35-.79,9.57-13,15.05-24.1,17.58a90.77,90.77,0,0,1-14.1,1.74C112.33,397.82,121.46,411.65,138.43,414.78Z" transform="translate(-80.83 -80.66)"/><path class="cls-2" d="M158,402.17c-2.87,2.08-9.22,4.17-11-1.05-.78-2.35.26-8.18,1.48-11.22-1.31.87-6.7,13.48-13.83,13.48-1.75,0-5-1.13-6.1-2.95-2-3.22-.08-9.75,3-14.53,1.22-1.92,3.39-5.14,4.18-5.4a8.67,8.67,0,0,1,4.69,0c1.05.44.44,1.31-.17,1.74a34,34,0,0,0-8.53,12.18c-2.78,7.4,1.13,9.4,7.23,4.53,3.21-2.61,7-7.66,10.17-12.36,1.57-2.26,4.53-7.83,5.66-9.57,1.13,0,5.39.78,4.52,2.35-1,1.74-4.26,7.14-5.39,9.4a27,27,0,0,0-2.78,8.61c-.53,3.74,1.21,5.74,4.09,4.26a51.29,51.29,0,0,0,12.87-12.09c.44-.61,1.57-.09,1.13.7C167.66,393.29,162.35,399,158,402.17Z" transform="translate(-80.83 -80.66)"/><path class="cls-2" d="M168,403.3c-1.3,1.74-.52,3.48,2.7,2.61,4.35-1.31,10.79-6.27,10.79-11.31,0-2.44-4.87-4.27-6.52-5.4a7.21,7.21,0,0,1-3-3.13c-1,1.65-2.35,3.74-3.92,6-.78,1-1.82.18-1.22-.78a35.91,35.91,0,0,0,4.7-8.18c.87-6.78,12.27-12.44,18.53-12.44,3.92,0,7.4,1.83,5.4,5.92a6.75,6.75,0,0,1-2.7,3c-.43.35-1.56-.17-.43-1.3,1.39-1.39,2.52-4.44.08-4.7-2.69-.17-7.39,1.74-9.48,2.79a18.71,18.71,0,0,0-7.48,6.26c-1.83,2.52-1.48,4.26.95,5.74,5.92,3.48,13.32,5.57,6.88,12.79-3,3.31-7.92,5.4-12.18,6.35-1.66.35-5.31.87-6.27-1-.61-.87.18-2.35,1.13-3.48a14.48,14.48,0,0,1,4.18-2.53c.61-.17.78.61.17.87A6.65,6.65,0,0,0,168,403.3Z" transform="translate(-80.83 -80.66)"/><path class="cls-2" d="M201.5,380.07a13.91,13.91,0,0,0,1.3-2.18c1.48-3.13,13.06-29.14,24.45-26.8,5,1,4.53,5,2.53,8.53-4.61,8.09-16.53,16.79-24.71,23.41a119.65,119.65,0,0,0-5,13.48c3.65-4.52,11.22-12.7,16-16.44,4-3.05,7.22-3.22,7.39-.53.27,2.88-2.61,6.79-3.91,9.23a28.12,28.12,0,0,0-2.78,8.61c-.61,3.74,1.13,5.74,4,4.26a53,53,0,0,0,13-12.09.63.63,0,1,1,1.05.7c-1.66,3-7,8.78-11.23,11.92-2.78,2.08-9.31,4.17-11-1.05a9.2,9.2,0,0,1-.08-4.17c.43-3.66,2.87-8.18,4.61-11.4,1.56-2.87,1.13-4.87-5.22.61-5,4.52-12.27,16-13.92,17-.87.44-5.49,2.53-4.62.87.53-1.3,4.44-12.79,7-19.22-1.21,1.56-4.78,5.74-7.13,8.26-.87,1-.87-1-.09-2.17,2.53-3.22,5.05-6.09,7-8.7-1.65-.87-.61-3.22,1.13-2.27Zm26.1-22c2.18-4.17.87-6.69-3.48-3.39-7.83,6-12.79,14.44-17.31,24.45C213.77,374.59,223.69,365.45,227.6,358.05Z" transform="translate(-80.83 -80.66)"/><path class="cls-2" d="M299.9,358.92C299.55,369,281.71,379.2,273,380c-2.78.26-1.91-2.52.44-2.7,9.05-.78,17.49-5.65,21.75-13.83,2.09-4,2.44-8.88-2.35-9.66-9.14-1.39-31.5,14.88-37.85,34.8-3.74,11.4,1.92,16.62,11.14,16.71,10.35.35,25.41-4.87,33.5-16.27.61-.87,1.65.09,1.22.78a43.45,43.45,0,0,1-34.72,17.66c-10.61-.08-18.79-6.35-15.4-20.44,4.44-18.1,25.14-37.94,42.2-35.33C297.72,352.4,300,355.44,299.9,358.92Z" transform="translate(-80.83 -80.66)"/><path class="cls-2" d="M297.63,391.64a71.3,71.3,0,0,0,8.09-12.27c-1.3-.17-2.17-1-1.82-2.09.78-2.61,4.43-6.17,7-7.39s4.35-2.09,2,2.17l-3.4,5.4a81.19,81.19,0,0,0,9.14.17c5.22-.26,3.13,2.7.08,6.18a48.6,48.6,0,0,0-7.83,13c-1.39,3.92-.08,6.35,2.79,4.87a51.29,51.29,0,0,0,12.87-12.09c.44-.61,1.57-.09,1.14.7-1.66,3-7,8.78-11.32,11.92a12.29,12.29,0,0,1-6.78,2.43,3.9,3.9,0,0,1-4.18-3.22c-1.56-5.65,4.18-12,7.4-15.31,1.3-1.48,5.31-5.31-.7-6.26a20,20,0,0,0-3.91-.44c-3.14,4.44-6.09,9-9.57,13.23C297.81,393.73,296.33,393.29,297.63,391.64Z" transform="translate(-80.83 -80.66)"/><path class="cls-2" d="M333.74,393.73c-1.31.08-1.92-1.13-.61-1.22,2.78-.26,7.65-3.05,10.87-5.66,1.48-1.13,4.09-3.74,3.92-5.65-.09-2.44-3.22-1.13-4.44-.52-5.13,2.35-12.61,9.57-14.53,15.92-2.17,7.31,4.53,7.39,10.18,5.13a33.9,33.9,0,0,0,15.14-12.09c.35-.44.78-.44,1-.26.43.17.43.61.08,1a32.7,32.7,0,0,1-15.05,13.05c-8.87,3.57-20,0-15.22-11,2.61-5.92,16.09-17.31,22.62-15.14,3.56,1.22,3,5.66,1.39,8.09C345.92,390.07,337.65,393.38,333.74,393.73Z" transform="translate(-80.83 -80.66)"/><path class="cls-2" d="M361.49,393.73c-1.31.08-1.92-1.13-.61-1.22,2.78-.26,7.66-3.05,10.88-5.66,1.47-1.13,4.08-3.74,3.91-5.65-.09-2.44-3.22-1.13-4.44-.52-5.13,2.35-12.61,9.57-14.53,15.92-2.17,7.31,4.53,7.39,10.18,5.13A33.9,33.9,0,0,0,382,389.64c.35-.44.79-.44,1-.26.43.17.43.61.09,1A32.73,32.73,0,0,1,368,403.47c-8.87,3.57-20,0-15.22-11,2.61-5.92,16.09-17.31,22.62-15.14,3.57,1.22,3,5.66,1.39,8.09C373.67,390.07,365.4,393.38,361.49,393.73Z" transform="translate(-80.83 -80.66)"/><path class="cls-2" d="M390.11,377.46c4.18-11,13.31-28.54,24.36-26.37a6.42,6.42,0,0,1,1.92.7c5.91,3.22-3,13.31-5.4,16-5.57,5.92-12.87,11-17.75,13.05-2.69,6-5.13,13-6,15.66l5.65-7.39a13.43,13.43,0,0,1,.09-3.22c.18-1.13,1.48-2.79,1.74-.61l.35,1.22c2.18-2.53,6.79-7.84,9.66-9.23,4.09-2,7.57,1.31,3.39,3.4-2.7,1.3-9.13,4.17-12.62,7.83,2.62,9.22,4.44,13.57,10.45,21,2.61,3.13,5.56,5.13,7.83,5.13,4.26,0,2.17-4.79.78-7-1.22-1.92.52-1.48,1.65-.61a10.1,10.1,0,0,1,1.92,4.7c-.09,3.56-4.53,5.22-6.7,5.22-8.62,0-16.1-14.1-18.19-25.58-4,5.65-7,11.05-8.18,11.74-.87.44-5.56,2.53-4.78.87.52-.95,4-11.13,6.87-18.44a54.38,54.38,0,0,0-4.7,6c-.52.7-2.34.61-.87-1.3,2.44-3,5.66-7.83,7.4-10.18-2.35-1.31-1-3.66.44-2.79A2,2,0,0,0,390.11,377.46ZM409,366.58c1.31-1.48,8.79-11.31,6.35-13.22-.69-.53-2.09-.26-4.09,1.3-7.83,6-12.35,13.23-17,23.23A44.6,44.6,0,0,0,409,366.58Z" transform="translate(-80.83 -80.66)"/></g><g id="Rush_Creek" data-name="Rush Creek"><path class="cls-3" d="M317.87,420.92c0,.2-.41.31-1.22.34a1.91,1.91,0,0,0-1.82.9,30.36,30.36,0,0,0-1.38,3.67q-1.63,4.94-2.89,8.38-2.16,5.91-3.92,11.42c-.1.31-.22.47-.37.47s-.24-.12-.35-.36-.44-1.08-1-2.51q-1-2.81-2.18-5.66-.93-2.24-1.83-4.61-2.51,6.07-5,12.71c-.1.28-.22.43-.37.43s-.26-.21-.43-.62q-1.12-2.66-8.28-22.06a8.35,8.35,0,0,0-.76-1.71c-.17-.23-.59-.36-1.26-.38-1.15-.05-1.73-.22-1.73-.51s.2-.32.58-.32a1.8,1.8,0,0,1,.43,0c1.27.07,2.64.1,4.11.1.28,0,.78,0,1.49-.07s1.63-.07,2.75-.07h.4c.41,0,.61.11.61.33s-.37.42-1.11.44c-1.47.05-2.21.25-2.21.59q0,1,6.61,18.76,2.41-6.09,3.59-9l-3.55-9.22a1.82,1.82,0,0,0-.67-1,3.34,3.34,0,0,0-1.39-.25c-.68,0-1-.13-1-.33s.25-.39.76-.39.85,0,1.4.07,1.52.07,2.88.07h6.7c.89,0,2,0,3.2-.11a3.78,3.78,0,0,1,.51,0c.57,0,.86.13.86.38s-.2.34-.61.34h-.61a5.43,5.43,0,0,0-2.45.43,7.67,7.67,0,0,0-1.33,2.59c-.29.67-.78,1.81-1.46,3.42l-.63,1.62c.17.48.69,1.82,1.57,4,1.15,2.78,2.08,5.16,2.82,7.15q2-5.82,4.77-13.78a37,37,0,0,0,1.46-4.7q0-.69-1.26-.69c-1.18,0-1.76-.13-1.76-.4s.23-.36.72-.36a8.12,8.12,0,0,1,1,.05,12.91,12.91,0,0,0,1.44.09h2.88a3.72,3.72,0,0,1,1.19.09A.24.24,0,0,1,317.87,420.92Zm-15.22.41h-1c-.86.05-1.29.2-1.29.47,0,.05.7,2.13,2.11,6.26q.82-1.8,1.94-4.76c.1-.26.24-.61.44-1l.08-.29C304.88,421.54,304.13,421.33,302.65,421.33Z" transform="translate(-80.83 -80.66)"/><path class="cls-3" d="M327.92,445.32c0,.21-.15.31-.43.31h-.37a46.11,46.11,0,0,0-4.89-.11c-.6,0-1.2,0-1.8.07-.31,0-.79,0-1.44,0-.31,0-.47-.11-.47-.33s.31-.3.94-.32c1,0,1.52-.14,1.69-.34a4.62,4.62,0,0,0,.25-2.08v-19a5.41,5.41,0,0,0-.18-2c-.15-.24-.82-.38-2-.43-.46,0-.69-.11-.69-.26s.15-.28.44-.28h4.89l2.11,0,1.38,0c.38,0,.58.1.58.31s-.54.29-1.61.34c-.6,0-1,.13-1.11.32a3.41,3.41,0,0,0-.2,1.51v19.23a6.38,6.38,0,0,0,.18,2.23,4.31,4.31,0,0,0,2.34.47C327.79,445,327.92,445.12,327.92,445.32Z" transform="translate(-80.83 -80.66)"/><path class="cls-3" d="M352.72,421c0,.24-.3.35-.9.32h-1.44c-.38,0-.61.07-.68.2a3.37,3.37,0,0,0-.11,1.2V443.4c0,1.27,0,2,0,2.23s-.09.32-.21.32-.31-.13-.51-.4l-4.59-6.73q-4-5.9-9.74-14.72v20.16a.64.64,0,0,0,.55.59,14.54,14.54,0,0,0,2.44.17c.31,0,.47.09.47.28s-.31.36-.94.36c-.21,0-.9,0-2-.1-.38,0-.75,0-1.11,0l-.63.07c-.45.05-1.13.07-2,.07h-.36c-.55,0-.83-.1-.83-.32s.24-.33.72-.33a7.15,7.15,0,0,0,2.47-.26c.23-.16.34-.67.34-1.54V425.44c0-2-.41-3.25-1.22-3.75a4.17,4.17,0,0,0-2.05-.36c-.63,0-.94-.13-.94-.38s.18-.34.54-.34,1.09,0,1.84.07l1.18.07,1,0c.79,0,1.56,0,2.31-.11l12.42,18.54v-16c0-.75,0-1.2,0-1.35a.46.46,0,0,0-.29-.36,5.86,5.86,0,0,0-1.73-.13c-.86,0-1.29-.11-1.29-.32s.29-.36.86-.36h5.8C352.46,420.61,352.72,420.73,352.72,421Z" transform="translate(-80.83 -80.66)"/><path class="cls-3" d="M374.14,439.83c0,.1,0,.69-.07,1.77s-.07,2.11-.07,3.09v1.19q-3.54-.21-14-.22h-4.5c-.46,0-.69-.09-.69-.29s.08-.2.22-.22l1.37-.1c.62-.05,1-.18,1.13-.39a4.3,4.3,0,0,0,.2-1.7v-20.3c0-.69-.1-1.11-.31-1.24a5.22,5.22,0,0,0-2-.2c-.38,0-.57-.1-.57-.31s.26-.3.79-.3H371a12.08,12.08,0,0,0,2-.15c.05,1,.16,2.46.33,4.29l.14,1.55a2.71,2.71,0,0,1,0,.46q0,.36-.33.36t-.57-.9c-.46-2.18-1.2-3.55-2.24-4.13-.76-.44-2.78-.65-6-.65h-3V432h.87c2.69,0,4.32-.2,4.91-.61s1-1.6,1.21-3.57q.07-.75.39-.75c.27,0,.4.21.4.65s0,1.06-.07,1.9-.07,1.48-.07,1.91c0,2.57,0,4.33.11,5.29,0,.24,0,.45,0,.62s-.13.46-.39.46a.34.34,0,0,1-.34-.3,19.51,19.51,0,0,1-.31-2A2.86,2.86,0,0,0,366.3,433a15.16,15.16,0,0,0-3.36-.21h-1.62v12.06a70.13,70.13,0,0,0,9.29-.32q2.38-.54,2.7-4.56c.05-.59.21-.88.47-.88S374.14,439.33,374.14,439.83Z" transform="translate(-80.83 -80.66)"/><path class="cls-3" d="M392.46,438.61a6.91,6.91,0,0,1-2.35,5.27,8.1,8.1,0,0,1-5.67,2.18,12,12,0,0,1-4.65-1.19,3.08,3.08,0,0,0-1.08-.32q-.43,0-.54,1c0,.35-.18.52-.47.52s-.36-.14-.36-.43a1.55,1.55,0,0,1,0-.43,31.89,31.89,0,0,0,.29-4.07c0-.24,0-.91-.08-2a4.24,4.24,0,0,1,0-.57c0-.36.14-.54.43-.54s.41.29.51.87q.93,6.47,6.08,6.47a4.51,4.51,0,0,0,3.4-1.24,4.81,4.81,0,0,0,1.21-3.51,5.23,5.23,0,0,0-1.17-3.44,12.23,12.23,0,0,0-4-2.83,15,15,0,0,1-4.75-3.27,5.9,5.9,0,0,1-1.33-3.93,6.73,6.73,0,0,1,1.92-4.93,6.61,6.61,0,0,1,4.88-1.94,10.06,10.06,0,0,1,3.39.83,3.51,3.51,0,0,0,1.11.28.7.7,0,0,0,.53-.14,2,2,0,0,0,.23-.76.38.38,0,0,1,.4-.36c.23,0,.36.15.36.44a2.16,2.16,0,0,1,0,.43,17.46,17.46,0,0,0-.11,2.09,16.24,16.24,0,0,0,.18,2.73l0,.58q0,.39-.33.39c-.26,0-.44-.27-.54-.82a6.43,6.43,0,0,0-1.87-3.55,4.65,4.65,0,0,0-3.31-1.42,3.68,3.68,0,0,0-2.86,1.15,4.43,4.43,0,0,0-1.07,3.13,4.78,4.78,0,0,0,1.55,3.71,19.07,19.07,0,0,0,3.75,2.23,15.6,15.6,0,0,1,4.86,3.44A6,6,0,0,1,392.46,438.61Z" transform="translate(-80.83 -80.66)"/></g></g></svg>